<svg width="1200" height="630" viewBox="0 0 1200 630" fill="none" xmlns="http://www.w3.org/2000/svg">
  <!-- Background -->
  <rect width="1200" height="630" fill="#0f172a"/>

  <!-- Subtle grid pattern -->
  <defs>
    <pattern id="grid" width="40" height="40" patternUnits="userSpaceOnUse">
      <path d="M 40 0 L 0 0 0 40" fill="none" stroke="#1e293b" stroke-width="1"/>
    </pattern>
  </defs>
  <rect width="1200" height="630" fill="url(#grid)"/>

  <!-- Glow accent top-left -->
  <ellipse cx="200" cy="160" rx="300" ry="200" fill="#22d3ee" fill-opacity="0.06"/>
  <!-- Glow accent bottom-right -->
  <ellipse cx="1050" cy="500" rx="280" ry="180" fill="#6366f1" fill-opacity="0.07"/>

  <!-- Icon background -->
  <rect x="100" y="215" width="80" height="80" rx="18" fill="#22d3ee" fill-opacity="0.15"/>
  <rect x="100" y="215" width="80" height="80" rx="18" stroke="#22d3ee" stroke-width="1.5" fill="none"/>

  <!-- File icon -->
  <g transform="translate(116, 231)">
    <path d="M30 4H12a4 4 0 0 0-4 4v32a4 4 0 0 0 4 4h24a4 4 0 0 0 4-4V14L30 4Z" fill="none" stroke="#22d3ee" stroke-width="3" stroke-linecap="round" stroke-linejoin="round"/>
    <path d="M28 4v8a4 4 0 0 0 4 4h8" stroke="#22d3ee" stroke-width="3" stroke-linecap="round" stroke-linejoin="round"/>
    <path d="M20 24a2 2 0 0 0-2 2v2a2 2 0 0 1-2 2 2 2 0 0 1 2 2v2a2 2 0 0 0 2 2" stroke="#22d3ee" stroke-width="2.5" stroke-linecap="round"/>
    <path d="M28 36a2 2 0 0 0 2-2v-2a2 2 0 0 1 2-2 2 2 0 0 1-2-2v-2a2 2 0 0 0-2-2" stroke="#22d3ee" stroke-width="2.5" stroke-linecap="round"/>
  </g>

  <!-- Main heading -->
  <text x="210" y="270" font-family="-apple-system, BlinkMacSystemFont, 'Segoe UI', Roboto, sans-serif" font-size="62" font-weight="700" fill="#f1f5f9" letter-spacing="-1">JSON Formatter</text>
  <!-- Subheading -->
  <text x="210" y="332" font-family="-apple-system, BlinkMacSystemFont, 'Segoe UI', Roboto, sans-serif" font-size="30" font-weight="400" fill="#94a3b8" letter-spacing="0">Free Online Validator, Beautifier &amp; Minifier</text>

  <!-- Divider -->
  <line x1="100" y1="370" x2="1100" y2="370" stroke="#1e293b" stroke-width="1.5"/>

  <!-- Feature pills -->
  <!-- Pill 1 -->
  <rect x="100" y="400" width="200" height="44" rx="22" fill="#22d3ee" fill-opacity="0.1" stroke="#22d3ee" stroke-opacity="0.3" stroke-width="1"/>
  <text x="200" y="427" font-family="-apple-system, BlinkMacSystemFont, 'Segoe UI', Roboto, sans-serif" font-size="17" fill="#22d3ee" text-anchor="middle">⚡ Instant Format</text>

  <!-- Pill 2 -->
  <rect x="320" y="400" width="200" height="44" rx="22" fill="#22d3ee" fill-opacity="0.1" stroke="#22d3ee" stroke-opacity="0.3" stroke-width="1"/>
  <text x="420" y="427" font-family="-apple-system, BlinkMacSystemFont, 'Segoe UI', Roboto, sans-serif" font-size="17" fill="#22d3ee" text-anchor="middle">🔒 100% Private</text>

  <!-- Pill 3 -->
  <rect x="540" y="400" width="200" height="44" rx="22" fill="#22d3ee" fill-opacity="0.1" stroke="#22d3ee" stroke-opacity="0.3" stroke-width="1"/>
  <text x="640" y="427" font-family="-apple-system, BlinkMacSystemFont, 'Segoe UI', Roboto, sans-serif" font-size="17" fill="#22d3ee" text-anchor="middle">🌐 Works Offline</text>

  <!-- Pill 4 -->
  <rect x="760" y="400" width="200" height="44" rx="22" fill="#22d3ee" fill-opacity="0.1" stroke="#22d3ee" stroke-opacity="0.3" stroke-width="1"/>
  <text x="860" y="427" font-family="-apple-system, BlinkMacSystemFont, 'Segoe UI', Roboto, sans-serif" font-size="17" fill="#22d3ee" text-anchor="middle">📑 Multi-tab</text>

  <!-- Bottom tagline -->
  <text x="600" y="530" font-family="-apple-system, BlinkMacSystemFont, 'Segoe UI', Roboto, sans-serif" font-size="20" fill="#475569" text-anchor="middle">No ads · No tracking · No backend · Free forever</text>

  <!-- Domain placeholder -->
  <text x="600" y="578" font-family="-apple-system, BlinkMacSystemFont, 'Segoe UI', Roboto, sans-serif" font-size="18" fill="#334155" text-anchor="middle">multijson.com</text>
</svg>
